<svg width="58" height="58" viewBox="0 0 58 58" fill="none" xmlns="http://www.w3.org/2000/svg">
<path d="M0 31.2722C6.58783 42.5659 15.4531 51.5388 26.6776 58H3.42297C1.53217 58 0 56.4666 0 54.5765V31.2722ZM0 3.41306C0 1.52755 1.52733 0.000241701 3.41137 0.000241701H15.0312L58 42.9179V54.4542C58 55.3947 57.6269 56.296 56.962 56.9614C56.2973 57.626 55.3959 57.9995 54.456 57.9998H42.9188L0 15.0819M31.3282 0H54.5722C55.4814 0.000192289 56.3533 0.36158 56.9962 1.00468C57.639 1.64777 58.0001 2.51991 58 3.42925V26.6944C51.3899 15.6907 42.5713 6.70188 31.3282 0Z" fill="#FD415E"/>
</svg>
